HIERARCHY
ROOT Hips
{
 OFFSET 0.000000 0.000000 0.000000
 CHANNELS 6 Xposition Yposition Zposition Yrotation Xrotation Zrotation
 JOINT Chest
 {
  OFFSET 0.000000 9.585900 0.002600
  CHANNELS 3 Yrotation Xrotation Zrotation
  JOINT Chest2
  {
   OFFSET 0.000000 9.601200 -0.005300
   CHANNELS 3 Yrotation Xrotation Zrotation
   JOINT Chest3
   {
    OFFSET 0.000000 9.561800 0.000000
    CHANNELS 3 Yrotation Xrotation Zrotation
    JOINT Chest4
    {
     OFFSET 0.000000 9.552100 0.000000
     CHANNELS 3 Yrotation Xrotation Zrotation
     JOINT Neck
     {
      OFFSET 0.000000 14.453000 0.000000
      CHANNELS 3 Yrotation Xrotation Zrotation
      JOINT Head
      {
       OFFSET 0.000000 8.936500 -0.011300
       CHANNELS 3 Yrotation Xrotation Zrotation
       End Site
       {
        OFFSET 0.000000 17.073600 -0.006000
       }
      }
     }
     JOINT RightCollar
     {
      OFFSET -2.921100 9.558500 0.000000
      CHANNELS 3 Yrotation Xrotation Zrotation
      JOINT RightShoulder
      {
       OFFSET -13.519700 0.000000 0.000000
       CHANNELS 3 Yrotation Xrotation Zrotation
       JOINT RightElbow
       {
        OFFSET 0.000000 -29.696600 0.000000
        CHANNELS 3 Yrotation Xrotation Zrotation
        JOINT RightWrist
        {
         OFFSET 0.000000 -24.004700 0.000000
         CHANNELS 3 Yrotation Xrotation Zrotation
         End Site
         {
          OFFSET 0.000000 -17.728500 0.000000
         }
        }
       }
      }
     }
     JOINT LeftCollar
     {
      OFFSET 2.921100 9.558500 0.000000
      CHANNELS 3 Yrotation Xrotation Zrotation
      JOINT LeftShoulder
      {
       OFFSET 13.519700 0.000000 0.000000
       CHANNELS 3 Yrotation Xrotation Zrotation
       JOINT LeftElbow
       {
        OFFSET 0.000000 -29.696600 0.000000
        CHANNELS 3 Yrotation Xrotation Zrotation
        JOINT LeftWrist
        {
         OFFSET 0.000000 -24.004700 0.000000
         CHANNELS 3 Yrotation Xrotation Zrotation
         End Site
         {
          OFFSET 0.000000 -17.728500 0.000000
         }
        }
       }
      }
     }
    }
   }
  }
 }
 JOINT RightHip
 {
  OFFSET -7.771700 -0.012900 -0.001300
  CHANNELS 3 Yrotation Xrotation Zrotation
  JOINT RightKnee
  {
   OFFSET 0.000000 -40.869800 0.001200
   CHANNELS 3 Yrotation Xrotation Zrotation
   JOINT RightAnkle
   {
    OFFSET 0.000000 -39.717900 0.002100
    CHANNELS 3 Yrotation Xrotation Zrotation
    JOINT RightToe
    {
     OFFSET 0.000000 -4.965400 11.033500
     CHANNELS 3 Yrotation Xrotation Zrotation
     End Site
     {
      OFFSET 0.000000 -1.423100 5.872300
     }
    }
   }
  }
 }
 JOINT LeftHip
 {
  OFFSET 7.771700 -0.012900 -0.001300
  CHANNELS 3 Yrotation Xrotation Zrotation
  JOINT LeftKnee
  {
   OFFSET 0.000000 -40.869800 0.001200
   CHANNELS 3 Yrotation Xrotation Zrotation
   JOINT LeftAnkle
   {
    OFFSET 0.000000 -39.717900 0.002100
    CHANNELS 3 Yrotation Xrotation Zrotation
    JOINT LeftToe
    {
     OFFSET 0.000000 -4.965400 11.033500
     CHANNELS 3 Yrotation Xrotation Zrotation
     End Site
     {
      OFFSET 0.000000 -1.423100 5.872300
     }
    }
   }
  }
 }
}
MOTION
Frames: 5
Frame Time: 0.008333
-38.644668 51.850627 23.140008 -179.038087 -29.325152 -0.218734 3.225361 27.118517 -2.238098 0.619246 4.719196 -0.421724 0.964275 7.474398 -0.641309 2.693984 22.057234 -1.579734 -2.436860 16.912660 -7.756402 -0.872260 -7.702544 -7.828192 13.262798 10.908010 14.379451 24.493926 -12.543011 -36.559633 -76.887824 -52.399265 17.568634 -15.913408 -15.330785 9.892482 -11.249378 12.458501 -17.745384 -30.406369 -5.847546 39.276048 138.704432 -44.072726 -88.036832 21.854086 -5.353742 10.875507 -10.541243 -53.214614 -0.387732 -56.916405 82.573644 -64.854312 -3.179109 -6.078271 7.262772 0.122755 -0.398512 0.070191 -0.078761 -51.569480 -3.047721 38.911363 83.343373 43.768607 -0.742481 -8.975474 -2.875150 0.137439 0.365419 0.067501
-38.647972 51.851126 23.140124 -179.033040 -29.324183 -0.223033 3.222194 27.115053 -2.238781 0.619241 4.718709 -0.420346 0.966045 7.471992 -0.641301 2.703375 22.050450 -1.575047 -2.454378 16.911379 -7.747390 -0.884220 -7.703434 -7.823804 13.259424 10.906076 14.380889 24.583912 -12.595564 -36.626114 -76.951013 -52.306738 17.576616 -15.971813 -15.369641 9.882724 -11.277002 12.462134 -17.744758 -30.406891 -5.854164 39.272054 138.709677 -44.065291 -88.018783 21.871462 -5.349460 10.995969 -10.539640 -53.214104 -0.389482 -57.013813 82.545863 -64.952082 -3.151918 -6.077256 7.267932 0.122735 -0.402911 0.069614 -0.082615 -51.571898 -3.046743 38.895150 83.345208 43.751854 -0.741980 -8.972537 -2.874833 0.138153 0.363854 0.068858
-38.650354 51.851788 23.139795 -179.032140 -29.325962 -0.229891 3.224348 27.113906 -2.230482 0.618852 4.719556 -0.424383 0.968217 7.466717 -0.641431 2.707742 22.052994 -1.572251 -2.468775 16.904520 -7.738875 -0.878764 -7.698008 -7.828855 13.267436 10.881346 14.380544 24.612038 -12.602182 -36.645473 -77.057347 -52.249427 17.665578 -16.019986 -15.406115 9.860238 -11.296745 12.453648 -17.749457 -30.393326 -5.848413 39.271077 138.727012 -44.031423 -88.025031 21.864650 -5.334119 11.113521 -10.528625 -53.206653 -0.396939 -57.007612 82.535084 -64.935326 -3.145417 -6.077176 7.266075 0.117685 -0.406159 0.069400 -0.088664 -51.571481 -3.039270 38.899217 83.346733 43.757939 -0.743394 -8.971100 -2.875831 0.140343 0.361601 0.069325
-38.652457 51.852838 23.138691 -179.036022 -29.333111 -0.234643 3.228958 27.118781 -2.230425 0.621208 4.720780 -0.419205 0.968551 7.465239 -0.641818 2.713810 22.049248 -1.570984 -2.485485 16.899216 -7.734568 -0.896284 -7.707674 -7.817981 13.287134 10.841692 14.371068 24.618748 -12.602496 -36.644013 -77.166217 -52.192127 17.747123 -16.054544 -15.432676 9.838303 -11.309022 12.450567 -17.751153 -30.397483 -5.856496 39.266528 138.766771 -43.992345 -88.052002 21.818604 -5.304330 11.187796 -10.525941 -53.195643 -0.396494 -56.980989 82.532425 -64.904842 -3.143879 -6.071039 7.263091 0.103730 -0.413999 0.063050 -0.087305 -51.565485 -3.036280 38.921611 83.349407 43.786202 -0.740106 -8.971796 -2.879533 0.139978 0.356270 0.067875
-38.655074 51.853624 23.138036 -179.034490 -29.337568 -0.236535 3.227800 27.115479 -2.232791 0.620484 4.723620 -0.418240 0.970445 7.467087 -0.640171 2.717909 22.048841 -1.569685 -2.501566 16.888933 -7.729521 -0.914718 -7.715021 -7.808520 13.292956 10.832440 14.367736 24.652830 -12.622112 -36.659294 -77.361857 -52.123847 17.932391 -15.951929 -15.457005 9.769269 -11.320938 12.437138 -17.758522 -30.401416 -5.853448 39.259381 138.772192 -44.004789 -88.048040 21.823255 -5.295542 11.242794 -10.525638 -53.190143 -0.400941 -56.960781 82.531949 -64.883133 -3.144491 -6.058684 7.255945 0.105286 -0.423229 0.065366 -0.079757 -51.562351 -3.043324 38.938798 83.349645 43.808206 -0.739773 -8.968691 -2.880629 0.138021 0.352059 0.069119
